<?xml version="1.0" encoding="utf-8"?>
<!-- Generator: Adobe Illustrator 26.2.1, SVG Export Plug-In . SVG Version: 6.00 Build 0)  -->
<svg version="1.1" id="Layer_1" xmlns="http://www.w3.org/2000/svg" xmlns:xlink="http://www.w3.org/1999/xlink" x="0px" y="0px"
	 viewBox="0 0 213 213" style="enable-background:new 0 0 213 213;" xml:space="preserve">
<style type="text/css">
	.st0{fill:#CC2229;}
	.st1{fill:#EAE5CA;}
</style>
<path class="st0" d="M189.6,121.48l15.83-15.83L189.6,89.82c-3.41,0.46-6.98-0.6-9.59-3.2l-53.32-53.32c-2.6-2.6-3.66-6.18-3.2-9.59
	L107.65,7.87L91.82,23.71c0.46,3.41-0.6,6.98-3.2,9.59L35.29,86.62c-2.6,2.6-6.18,3.66-9.59,3.2L9.88,105.65l15.83,15.83
	c3.41-0.46,6.98,0.6,9.59,3.2l53.32,53.32c2.6,2.6,3.66,6.18,3.2,9.59l15.83,15.83l15.83-15.83c-0.46-3.41,0.6-6.98,3.2-9.59
	l53.32-53.32C182.61,122.08,186.19,121.02,189.6,121.48z"/>
<path d="M98.2,161.64c0,1.08-12.27,8.25-12.27,8.25h43.45c0,0-9.57-7.17-9.57-8.25c0,0-0.05-48.97-0.05-49.02
	c0-0.63,3.74-3.75,7.35-6.41l0.25-0.19l-0.25-0.19c-3.57-2.68-7.29-5.79-7.33-6.35c0-0.39,0.11-49.77,0.11-49.82
	c0-1.08,9.48-8.25,9.48-8.25H85.93c0,0,12.18,7.17,12.18,8.25c0,0.05,0.11,49.4,0.11,49.82c-0.04,0.5-7.6,6.55-7.6,6.55
	s7.62,6.01,7.62,6.58C98.24,112.67,98.2,161.64,98.2,161.64z"/>
<path class="st1" d="M174.23,98.33c-0.16-0.31-2.53-4.55-6.79-9.62c-0.6-0.62-1.2-1.23-1.8-1.83c-2.61-2.59-5.24-5.17-7.88-7.74
	c-3.08-3-6.28-5.86-9.53-8.67c-4.5-3.88-9.47-7.03-14.8-9.64c-3.52-1.72-7.2-3.03-11.02-3.94c-2.69-0.64-5.4-1.1-8.14-1.49
	c-3.72-0.53-7.46-0.96-11.21-1.12c-5.13-0.22-10.27-0.32-15.41-0.37c-5.9-0.06-11.81-0.02-17.71-0.03
	c-8.89-0.03-17.79-0.07-26.68-0.1c-0.61,0-1.22,0.04-1.79,0.06c-0.22,0.34-0.29,0.62,0,0.86c0.29,0.24,0.6,0.47,0.92,0.69
	c3.78,2.62,7.57,5.23,11.35,7.85c0.63,0.44,1.24,0.9,1.84,1.37c0.51,0.39,0.78,0.92,0.87,1.56c0.21,1.45,0.26,2.9,0.26,4.36
	c0.01,5.68,0.01,73.97-0.04,74.81c-0.05,0.81-0.41,1.46-1.11,1.91c-0.9,0.58-9.58,6.08-13.02,8.25c-0.45,0.28-1.02,0.67-1.44,1
	c-0.2,0.16-0.28,0.55-0.08,0.72c0.21,0.18,0.49,0.33,1.07,0.33c12.21-0.09,67.81-0.48,69.78-0.62
	c20.13-1.38,62.29-24.68,42.16-72.04c0,0,9.36,5.24,19.2,14.75c0.06,0.03,0.1,0.1,0.17,0.11c0.13,0.03,0.55,0.03,0.76-0.14
	C174.51,99.32,174.44,98.75,174.23,98.33z M131.51,108.94c-0.25,2.6-0.55,5.18-1.06,7.74c-0.36,1.81-0.79,3.46-1.25,4.92
	c-0.22,0.7-0.78,1.78-1.09,2.48c-1.39,3.17-3.09,6.17-5.11,8.98c-1.85,2.57-4.09,4.77-6.54,6.76c-1.13,0.91-2.32,1.77-3.52,2.58
	c-2.32,1.57-4.86,2.57-7.63,3.03c-1.52,0.25-3.03,0.42-4.57,0.44c-3.07,0.04-6.13,0.1-9.2,0.13l-10.29-0.07c0,0-0.28-0.01-0.37-0.11
	c-0.07-0.07-0.16-0.26-0.16-0.26L81,67.43c0,0,0-0.19,0.08-0.27c0.08-0.08,0.07-0.18,0.36-0.17c2.85,0.09,19.03,0.75,30.5,3.8
	c8.63,2.3,12.85,7.39,13.64,8.96c2.55,3.24,4.37,6.84,5.27,10.88c0.57,2.55,0.93,5.13,0.99,7.75
	C131.91,101.9,131.84,105.42,131.51,108.94z"/>
</svg>
